M48
; DRILL file {KiCad 9.0.0} date 2025-03-11T00:04:00+0100
; FORMAT={-:-/ absolute / metric / decimal}
; #@! TF.CreationDate,2025-03-11T00:04:00+01:00
; #@! TF.GenerationSoftware,Kicad,Pcbnew,9.0.0
; #@! TF.FileFunction,Plated,1,2,PTH
FMAT,2
METRIC
; #@! TA.AperFunction,Plated,PTH,ViaDrill
T1C0.600
; #@! TA.AperFunction,Plated,PTH,ComponentDrill
T2C1.000
; #@! TA.AperFunction,Plated,PTH,ComponentDrill
T3C1.100
; #@! TA.AperFunction,Plated,PTH,ComponentDrill
T4C1.300
%
G90
G05
T1
X138.43Y-80.645
X150.495Y-75.565
X177.546Y-91.948
X177.8Y-78.232
T2
X102.955Y-104.1
X102.955Y-123.23
X113.03Y-52.07
X113.03Y-69.85
X115.57Y-52.07
X115.57Y-69.85
X118.11Y-52.07
X118.11Y-69.85
X120.65Y-52.07
X120.65Y-69.85
X123.19Y-52.07
X123.19Y-69.85
X125.73Y-52.07
X125.73Y-69.85
X128.27Y-52.07
X128.27Y-69.85
X130.81Y-52.07
X130.81Y-69.85
X130.81Y-80.645
X130.81Y-83.185
X130.81Y-85.725
X133.35Y-52.07
X133.35Y-69.85
X135.89Y-52.07
X135.89Y-69.85
X136.135Y-75.565
X136.135Y-78.105
X136.135Y-80.645
X136.135Y-83.185
X136.135Y-85.725
X136.135Y-88.265
X136.144Y-91.948
X138.43Y-52.07
X138.43Y-69.85
X139.954Y-91.948
X140.97Y-52.07
X140.97Y-69.85
X143.51Y-52.07
X143.51Y-69.85
X146.05Y-52.07
X146.05Y-69.85
X148.59Y-52.07
X148.59Y-69.85
X150.114Y-91.948
X151.13Y-52.07
X151.13Y-69.85
X153.67Y-52.07
X153.67Y-69.85
X153.915Y-75.565
X153.915Y-78.105
X153.915Y-80.645
X153.915Y-83.185
X153.915Y-85.725
X153.915Y-88.265
X153.924Y-91.948
X156.21Y-52.07
X156.21Y-69.85
X158.75Y-52.07
X158.75Y-69.85
X161.29Y-52.07
X161.29Y-69.85
X163.83Y-75.565
X163.83Y-78.105
X163.83Y-80.645
X168.895Y-75.565
X171.435Y-75.565
X173.975Y-75.565
X175.175Y-104.1
X175.175Y-123.23
X176.515Y-75.565
X176.53Y-69.85
X179.055Y-75.565
X179.07Y-69.85
X179.77Y-102.148
X179.852Y-97.647
X181.595Y-75.565
X181.61Y-69.85
X182.27Y-102.148
X182.352Y-97.647
X184.135Y-75.565
X184.15Y-69.85
X185.44Y-97.647
X185.505Y-102.148
X186.675Y-75.565
X186.69Y-69.85
X187.94Y-97.647
X188.005Y-102.148
T3
X181.356Y-94.528
X183.896Y-94.528
X186.436Y-94.528
T4
X105.877Y-80.7
X105.877Y-85.7
X183.642Y-111.88
X183.642Y-116.88
X183.642Y-123.27
X183.642Y-128.27
M30
